<svg xmlns="http://www.w3.org/2000/svg" xmlns:xlink="http://www.w3.org/1999/xlink" width="120" zoomAndPan="magnify" viewBox="0 0 90 89.999999" height="120" preserveAspectRatio="xMidYMid meet" version="1.0"><defs><g/></defs><g fill="#000000" fill-opacity="1"><g transform="translate(15.134907, 60.603641)"><g><path d="M 3.109375 -3.1875 C 6.429688 -3.59375 9.070312 -4.367188 11.03125 -5.515625 L 11.03125 -52.03125 C 8.789062 -53.1875 5.972656 -53.960938 2.578125 -54.359375 L 3.015625 -57.46875 L 16.71875 -57.46875 L 43.859375 -16.453125 L 43.859375 -52.03125 C 41.847656 -53.125 39.085938 -53.898438 35.578125 -54.359375 L 36.015625 -57.46875 L 57.8125 -57.46875 L 57.375 -54.359375 C 54.21875 -54.015625 51.578125 -53.238281 49.453125 -52.03125 L 49.453125 0 L 45.75 0 L 16.453125 -44.375 L 16.453125 -5.515625 C 18.347656 -4.421875 21.132812 -3.644531 24.8125 -3.1875 L 24.46875 0 L 2.578125 0 Z M 3.109375 -3.1875 "/></g></g></g><g fill="#000000" fill-opacity="1"><g transform="translate(20.779201, 80.569954)"><g><path d="M 10 0 L 8.546875 0 L 2.6875 -8.875 L 2.6875 0 L 1.234375 0 L 1.234375 -11.171875 L 2.6875 -11.171875 L 8.546875 -2.296875 L 8.546875 -11.171875 L 10 -11.171875 Z M 10 0 "/></g></g></g><g fill="#000000" fill-opacity="1"><g transform="translate(33.148122, 80.569954)"><g><path d="M 2.6875 -11.15625 L 2.6875 0 L 1.234375 0 L 1.234375 -11.15625 Z M 2.6875 -11.15625 "/></g></g></g><g fill="#000000" fill-opacity="1"><g transform="translate(38.204688, 80.569954)"><g><path d="M 9.828125 -11.15625 L 9.828125 0 L 8.375 0 L 8.375 -5.0625 L 2.6875 -5.0625 L 2.6875 0 L 1.234375 0 L 1.234375 -11.15625 L 2.6875 -11.15625 L 2.6875 -6.25 L 8.375 -6.25 L 8.375 -11.15625 Z M 9.828125 -11.15625 "/></g></g></g><g fill="#000000" fill-opacity="1"><g transform="translate(50.397599, 80.569954)"><g><path d="M 7.828125 -2.484375 L 2.953125 -2.484375 L 2.0625 0 L 0.53125 0 L 4.5625 -11.09375 L 6.234375 -11.09375 L 10.25 0 L 8.71875 0 Z M 7.40625 -3.65625 L 5.390625 -9.296875 L 3.375 -3.65625 Z M 7.40625 -3.65625 "/></g></g></g><g fill="#000000" fill-opacity="1"><g transform="translate(62.302497, 80.569954)"><g><path d="M 2.6875 -1.1875 L 6.59375 -1.1875 L 6.59375 0 L 1.234375 0 L 1.234375 -11.15625 L 2.6875 -11.15625 Z M 2.6875 -1.1875 "/></g></g></g><g fill="#000000" fill-opacity="1"><g transform="translate(20.410373, 88.267002)"><g><path d="M 3.359375 -3.046875 C 3.359375 -2.691406 3.234375 -2.394531 2.984375 -2.15625 C 2.742188 -1.914062 2.375 -1.796875 1.875 -1.796875 L 1.046875 -1.796875 L 1.046875 0 L 0.46875 0 L 0.46875 -4.3125 L 1.875 -4.3125 C 2.351562 -4.3125 2.71875 -4.191406 2.96875 -3.953125 C 3.226562 -3.722656 3.359375 -3.421875 3.359375 -3.046875 Z M 1.875 -2.265625 C 2.1875 -2.265625 2.414062 -2.332031 2.5625 -2.46875 C 2.707031 -2.601562 2.78125 -2.796875 2.78125 -3.046875 C 2.78125 -3.578125 2.476562 -3.84375 1.875 -3.84375 L 1.046875 -3.84375 L 1.046875 -2.265625 Z M 1.875 -2.265625 "/></g></g></g><g fill="#000000" fill-opacity="1"><g transform="translate(26.065759, 88.267002)"><g><path d="M 2.75 0 L 1.71875 -1.765625 L 1.046875 -1.765625 L 1.046875 0 L 0.46875 0 L 0.46875 -4.3125 L 1.875 -4.3125 C 2.195312 -4.3125 2.46875 -4.253906 2.6875 -4.140625 C 2.914062 -4.035156 3.082031 -3.882812 3.1875 -3.6875 C 3.300781 -3.5 3.359375 -3.285156 3.359375 -3.046875 C 3.359375 -2.742188 3.273438 -2.476562 3.109375 -2.25 C 2.941406 -2.03125 2.6875 -1.882812 2.34375 -1.8125 L 3.421875 0 Z M 1.046875 -2.21875 L 1.875 -2.21875 C 2.175781 -2.21875 2.398438 -2.289062 2.546875 -2.4375 C 2.703125 -2.59375 2.78125 -2.796875 2.78125 -3.046875 C 2.78125 -3.296875 2.703125 -3.488281 2.546875 -3.625 C 2.398438 -3.769531 2.175781 -3.84375 1.875 -3.84375 L 1.046875 -3.84375 Z M 1.046875 -2.21875 "/></g></g></g><g fill="#000000" fill-opacity="1"><g transform="translate(31.900325, 88.267002)"><g><path d="M 2.4375 0.046875 C 2.03125 0.046875 1.660156 -0.046875 1.328125 -0.234375 C 1.003906 -0.421875 0.742188 -0.679688 0.546875 -1.015625 C 0.359375 -1.359375 0.265625 -1.738281 0.265625 -2.15625 C 0.265625 -2.582031 0.359375 -2.960938 0.546875 -3.296875 C 0.742188 -3.628906 1.003906 -3.890625 1.328125 -4.078125 C 1.660156 -4.265625 2.03125 -4.359375 2.4375 -4.359375 C 2.832031 -4.359375 3.195312 -4.265625 3.53125 -4.078125 C 3.863281 -3.890625 4.125 -3.628906 4.3125 -3.296875 C 4.5 -2.960938 4.59375 -2.582031 4.59375 -2.15625 C 4.59375 -1.726562 4.5 -1.347656 4.3125 -1.015625 C 4.125 -0.679688 3.863281 -0.421875 3.53125 -0.234375 C 3.195312 -0.046875 2.832031 0.046875 2.4375 0.046875 Z M 2.4375 -0.453125 C 2.738281 -0.453125 3.007812 -0.519531 3.25 -0.65625 C 3.488281 -0.789062 3.675781 -0.988281 3.8125 -1.25 C 3.945312 -1.507812 4.015625 -1.8125 4.015625 -2.15625 C 4.015625 -2.5 3.945312 -2.800781 3.8125 -3.0625 C 3.675781 -3.320312 3.488281 -3.519531 3.25 -3.65625 C 3.007812 -3.800781 2.738281 -3.875 2.4375 -3.875 C 2.125 -3.875 1.847656 -3.800781 1.609375 -3.65625 C 1.367188 -3.519531 1.179688 -3.320312 1.046875 -3.0625 C 0.910156 -2.800781 0.84375 -2.5 0.84375 -2.15625 C 0.84375 -1.8125 0.910156 -1.507812 1.046875 -1.25 C 1.179688 -0.988281 1.367188 -0.789062 1.609375 -0.65625 C 1.859375 -0.519531 2.132812 -0.453125 2.4375 -0.453125 Z M 2.4375 -0.453125 "/></g></g></g><g fill="#000000" fill-opacity="1"><g transform="translate(38.834689, 88.267002)"><g><path d="M 3.125 -4.3125 L 3.125 -3.859375 L 1.953125 -3.859375 L 1.953125 0 L 1.390625 0 L 1.390625 -3.859375 L 0.203125 -3.859375 L 0.203125 -4.3125 Z M 3.125 -4.3125 "/></g></g></g><g fill="#000000" fill-opacity="1"><g transform="translate(44.255283, 88.267002)"><g><path d="M 2.921875 -4.3125 L 2.921875 -3.859375 L 1.046875 -3.859375 L 1.046875 -2.40625 L 2.5625 -2.40625 L 2.5625 -1.9375 L 1.046875 -1.9375 L 1.046875 0 L 0.46875 0 L 0.46875 -4.3125 Z M 2.921875 -4.3125 "/></g></g></g><g fill="#000000" fill-opacity="1"><g transform="translate(49.447269, 88.267002)"><g><path d="M 2.4375 0.046875 C 2.03125 0.046875 1.660156 -0.046875 1.328125 -0.234375 C 1.003906 -0.421875 0.742188 -0.679688 0.546875 -1.015625 C 0.359375 -1.359375 0.265625 -1.738281 0.265625 -2.15625 C 0.265625 -2.582031 0.359375 -2.960938 0.546875 -3.296875 C 0.742188 -3.628906 1.003906 -3.890625 1.328125 -4.078125 C 1.660156 -4.265625 2.03125 -4.359375 2.4375 -4.359375 C 2.832031 -4.359375 3.195312 -4.265625 3.53125 -4.078125 C 3.863281 -3.890625 4.125 -3.628906 4.3125 -3.296875 C 4.5 -2.960938 4.59375 -2.582031 4.59375 -2.15625 C 4.59375 -1.726562 4.5 -1.347656 4.3125 -1.015625 C 4.125 -0.679688 3.863281 -0.421875 3.53125 -0.234375 C 3.195312 -0.046875 2.832031 0.046875 2.4375 0.046875 Z M 2.4375 -0.453125 C 2.738281 -0.453125 3.007812 -0.519531 3.25 -0.65625 C 3.488281 -0.789062 3.675781 -0.988281 3.8125 -1.25 C 3.945312 -1.507812 4.015625 -1.8125 4.015625 -2.15625 C 4.015625 -2.5 3.945312 -2.800781 3.8125 -3.0625 C 3.675781 -3.320312 3.488281 -3.519531 3.25 -3.65625 C 3.007812 -3.800781 2.738281 -3.875 2.4375 -3.875 C 2.125 -3.875 1.847656 -3.800781 1.609375 -3.65625 C 1.367188 -3.519531 1.179688 -3.320312 1.046875 -3.0625 C 0.910156 -2.800781 0.84375 -2.5 0.84375 -2.15625 C 0.84375 -1.8125 0.910156 -1.507812 1.046875 -1.25 C 1.179688 -0.988281 1.367188 -0.789062 1.609375 -0.65625 C 1.859375 -0.519531 2.132812 -0.453125 2.4375 -0.453125 Z M 2.4375 -0.453125 "/></g></g></g><g fill="#000000" fill-opacity="1"><g transform="translate(56.381635, 88.267002)"><g><path d="M 1.046875 -0.453125 L 2.546875 -0.453125 L 2.546875 0 L 0.46875 0 L 0.46875 -4.3125 L 1.046875 -4.3125 Z M 1.046875 -0.453125 "/></g></g></g><g fill="#000000" fill-opacity="1"><g transform="translate(61.128763, 88.267002)"><g><path d="M 1.046875 -4.3125 L 1.046875 0 L 0.46875 0 L 0.46875 -4.3125 Z M 1.046875 -4.3125 "/></g></g></g><g fill="#000000" fill-opacity="1"><g transform="translate(64.726663, 88.267002)"><g><path d="M 2.4375 0.046875 C 2.03125 0.046875 1.660156 -0.046875 1.328125 -0.234375 C 1.003906 -0.421875 0.742188 -0.679688 0.546875 -1.015625 C 0.359375 -1.359375 0.265625 -1.738281 0.265625 -2.15625 C 0.265625 -2.582031 0.359375 -2.960938 0.546875 -3.296875 C 0.742188 -3.628906 1.003906 -3.890625 1.328125 -4.078125 C 1.660156 -4.265625 2.03125 -4.359375 2.4375 -4.359375 C 2.832031 -4.359375 3.195312 -4.265625 3.53125 -4.078125 C 3.863281 -3.890625 4.125 -3.628906 4.3125 -3.296875 C 4.5 -2.960938 4.59375 -2.582031 4.59375 -2.15625 C 4.59375 -1.726562 4.5 -1.347656 4.3125 -1.015625 C 4.125 -0.679688 3.863281 -0.421875 3.53125 -0.234375 C 3.195312 -0.046875 2.832031 0.046875 2.4375 0.046875 Z M 2.4375 -0.453125 C 2.738281 -0.453125 3.007812 -0.519531 3.25 -0.65625 C 3.488281 -0.789062 3.675781 -0.988281 3.8125 -1.25 C 3.945312 -1.507812 4.015625 -1.8125 4.015625 -2.15625 C 4.015625 -2.5 3.945312 -2.800781 3.8125 -3.0625 C 3.675781 -3.320312 3.488281 -3.519531 3.25 -3.65625 C 3.007812 -3.800781 2.738281 -3.875 2.4375 -3.875 C 2.125 -3.875 1.847656 -3.800781 1.609375 -3.65625 C 1.367188 -3.519531 1.179688 -3.320312 1.046875 -3.0625 C 0.910156 -2.800781 0.84375 -2.5 0.84375 -2.15625 C 0.84375 -1.8125 0.910156 -1.507812 1.046875 -1.25 C 1.179688 -0.988281 1.367188 -0.789062 1.609375 -0.65625 C 1.859375 -0.519531 2.132812 -0.453125 2.4375 -0.453125 Z M 2.4375 -0.453125 "/></g></g></g></svg>